<svg xmlns="http://www.w3.org/2000/svg" viewBox="0 0 512 512">
  <rect width="512" height="512" rx="112" fill="#7169fb" />
  <path d="M336 213.3c0-41.2-33.5-74.7-74.7-74.7H256v-32c0-8.8-7.2-16-16-16h-32c-8.8 0-16 7.2-16 16v32h-10.7c-41.2 0-74.7 33.5-74.7 74.7v21.3c0 41.2 33.5 74.7 74.7 74.7H256v32c0 8.8 7.2 16 16 16h32c8.8 0 16-7.2 16-16v-32h10.7c41.2 0 74.7-33.5 74.7-74.7V213.3zM256 181.3h5.3c17.6 0 32 14.4 32 32v21.3c0 17.6-14.4 32-32 32H256V181.3zM256 330.7h-74.7c-17.6 0-32-14.4-32-32v-21.3c0-17.6 14.4-32 32-32H256V330.7z" fill="white" />
</svg>
